# Blender 4.0.2
# www.blender.org
mtllib streetlight.mtl
o StreetLight
v 0.053354 5.289985 0.557266
v 0.092308 5.374089 0.842318
v 0.092411 5.258277 0.574430
v -0.000000 5.424209 0.829128
v 0.053294 5.410781 0.832666
v 0.106588 5.324200 0.855474
v 0.106706 5.214958 0.597774
v 0.053437 5.062383 0.275624
v 0.092307 5.275862 0.868589
v 0.092409 5.172149 0.621051
v 0.092553 5.037058 0.302680
v 0.106869 5.002456 0.339429
v 0.060989 5.160083 0.637766
v 0.053432 4.943502 0.402878
v 0.092409 5.172149 0.621051
v 0.000000 4.934163 0.412704
v -0.000000 5.155687 0.643889
v -0.066492 5.272691 0.877644
v -0.060989 5.160083 0.637766
v -0.092308 5.275862 0.868589
v -0.092409 5.172150 0.621052
v -0.053432 4.943502 0.402878
v -0.000000 5.301583 0.550961
v -0.053437 5.062384 0.275625
v -0.053354 5.289985 0.557266
v -0.092308 5.374089 0.842318
v -0.053294 5.410781 0.832666
v -0.092412 5.258277 0.574430
v -0.106588 5.324200 0.855474
v -0.092553 5.037059 0.302680
v -0.106706 5.214958 0.597774
v -0.092308 5.275862 0.868589
v -0.106869 5.002456 0.339429
v -0.092409 5.172150 0.621052
v -0.092549 4.968330 0.376060
v 0.069448 1.128050 0.108502
v 0.000000 1.094210 0.168468
v 0.091503 1.094210 0.145154
v 0.120274 1.128050 0.060260
v 0.158472 1.094210 0.081482
v 0.138858 1.128050 -0.005595
v 0.182959 1.094210 -0.005439
v 0.158422 1.094210 -0.092316
v 0.120235 1.128050 -0.071416
v 0.091456 1.094210 -0.155905
v 0.069411 1.128050 -0.119593
v 0.000000 1.094210 -0.179180
v 0.000000 1.128050 -0.137227
v -0.069411 1.128050 -0.119593
v -0.091456 1.094210 -0.155905
v -0.158472 1.094210 0.081483
v -0.138858 1.128050 -0.005595
v -0.182959 1.094210 -0.005439
v -0.120274 1.128050 0.060261
v -0.091503 1.094210 0.145154
v -0.069448 1.128050 0.108502
v 0.000000 1.128050 0.126166
v -0.120235 1.128050 -0.071416
v -0.158422 1.094210 -0.092316
v 0.069448 1.128050 0.108502
v 0.000000 4.014815 0.066651
v 0.000000 1.128050 0.126166
v 0.120274 1.128050 0.060260
v 0.056309 4.025156 0.054973
v 0.138858 1.128050 -0.005595
v 0.097484 4.053952 0.023133
v 0.120235 1.128050 -0.071416
v 0.112483 4.094488 -0.020205
v 0.138858 1.128050 -0.005595
v 0.069411 1.128050 -0.119593
v 0.097344 4.134987 -0.063417
v 0.000000 1.128050 -0.137227
v 0.056176 4.163753 -0.095026
v 0.092274 5.610389 1.844173
v -0.000001 5.560653 1.863266
v 0.106549 5.560653 1.863267
v -0.092274 5.507771 1.882993
v -0.106549 5.560653 1.863266
v -0.000001 5.507771 1.882993
v -0.068306 5.490739 1.798287
v -0.000000 5.491210 1.800629
v 0.068306 5.490739 1.798287
v 0.092274 5.507771 1.882993
v 0.092274 5.507771 1.882993
v -0.000001 5.507771 1.882993
v -0.000001 5.610389 1.844173
v -0.092274 5.610389 1.844173
v -0.000001 5.610389 1.844173
v -0.000000 5.637774 1.734786
v -0.053275 5.624448 1.739902
v 0.053274 5.624448 1.739902
v -0.112483 4.094487 -0.020205
v -0.138858 1.128050 -0.005595
v -0.097484 4.053952 0.023133
v -0.120274 1.128050 0.060261
v -0.056309 4.025156 0.054973
v -0.095079 4.397768 0.074391
v -0.054907 4.370198 0.104332
v -0.093272 4.732317 0.203572
v -0.109746 4.436069 0.033581
v -0.053854 4.706099 0.231674
v -0.107691 4.768407 0.165216
v -0.069448 1.128050 0.108502
v 0.000000 4.360215 0.115307
v 0.000000 4.696554 0.241971
v 0.054907 4.370197 0.104332
v 0.053854 4.706099 0.231674
v 0.095079 4.397768 0.074391
v 0.093272 4.732317 0.203571
v 0.092549 4.968329 0.376060
v 0.112483 4.094488 -0.020205
v 0.109746 4.436070 0.033581
v 0.107691 4.768407 0.165216
v 0.095007 4.474367 -0.007182
v 0.093253 4.804548 0.126819
v 0.054839 4.501956 -0.037040
v 0.053837 4.830878 0.098628
v 0.000000 4.174091 -0.106595
v 0.000000 4.511955 -0.047977
v 0.000000 4.840481 0.088284
v -0.000000 5.071640 0.265677
v -0.056176 4.163753 -0.095026
v -0.054839 4.501957 -0.037040
v -0.053837 4.830879 0.098628
v -0.069411 1.128050 -0.119593
v -0.097344 4.134987 -0.063417
v -0.095007 4.474367 -0.007182
v -0.093253 4.804549 0.126819
v -0.112483 4.094487 -0.020205
v -0.120235 1.128050 -0.071416
v -0.138858 1.128050 -0.005595
v -0.092274 5.344795 1.064275
v 0.204377 5.419516 1.182200
v 0.181104 5.562691 1.627813
v 0.209121 5.512955 1.646906
v -0.204378 5.419516 1.182199
v -0.181104 5.562691 1.627813
v -0.176996 5.469251 1.163106
v -0.176996 5.370665 1.201115
v -0.209121 5.512955 1.646906
v -0.204378 5.419516 1.182199
v -0.092274 5.344795 1.064275
v -0.106549 5.392369 1.045617
v -0.176996 5.469251 1.163106
v -0.104561 5.599099 1.613835
v -0.102189 5.505660 1.149128
v 0.176996 5.469251 1.163106
v 0.106549 5.392369 1.045617
v 0.092274 5.441800 1.026584
v -0.092274 5.441800 1.026584
v -0.000000 5.612425 1.608719
v -0.000000 5.518985 1.144012
v 0.176996 5.370665 1.201115
v 0.209121 5.512955 1.646906
v 0.181104 5.464105 1.665821
v 0.092274 5.344795 1.064275
v 0.204377 5.419516 1.182200
v 0.106549 5.392369 1.045617
v 0.102189 5.505660 1.149128
v -0.053275 5.478209 1.012607
v -0.176996 5.370665 1.201115
v -0.092274 5.344795 1.064275
v -0.131021 5.371952 1.207513
v -0.181104 5.464105 1.665821
v -0.176996 5.469251 1.163106
v -0.106549 5.392369 1.045617
v -0.204378 5.419516 1.182199
v 0.131021 5.371952 1.207513
v 0.092274 5.344795 1.064275
v 0.176996 5.370665 1.201115
v 0.176996 5.469251 1.163106
v 0.104560 5.599099 1.613835
v 0.181104 5.562691 1.627813
v 0.092274 5.610389 1.844173
v 0.134062 5.465391 1.672220
v 0.181104 5.464105 1.665821
v -0.209121 5.512955 1.646906
v -0.092274 5.610389 1.844173
v -0.106549 5.560653 1.863266
v -0.134062 5.465391 1.672219
v -0.092274 5.507771 1.882993
v 0.106549 5.560653 1.863267
v 0.092274 5.507771 1.882993
v 0.176996 5.469251 1.163106
v 0.092274 5.610389 1.844173
v 0.106549 5.560653 1.863267
v -0.181104 5.562691 1.627813
v -0.092274 5.610389 1.844173
v -0.091503 1.094210 0.145154
v 0.000000 -0.008023 0.203100
v 0.000000 1.094210 0.168468
v -0.101550 -0.008023 0.175890
v -0.158472 1.094210 0.081483
v -0.175890 -0.008023 0.101550
v 0.000000 1.094210 -0.179180
v 0.000000 -0.008023 -0.203100
v -0.091456 1.094210 -0.155905
v 0.091456 1.094210 -0.155905
v 0.101550 -0.008023 -0.175890
v -0.203100 -0.008023 0.000000
v -0.158422 1.094210 -0.092316
v -0.175890 -0.008023 -0.101550
v -0.182959 1.094210 -0.005439
v -0.000000 5.491535 1.007490
v 0.158422 1.094210 -0.092316
v 0.175890 -0.008023 -0.101550
v 0.203100 -0.008023 -0.000000
v 0.182959 1.094210 -0.005439
v 0.158472 1.094210 0.081482
v 0.175890 -0.008023 0.101550
v 0.101550 -0.008023 0.175890
v -0.181104 5.464105 1.665821
v -0.106549 5.560653 1.863266
v -0.092274 5.507771 1.882993
v -0.101550 -0.008023 -0.175890
v 0.091503 1.094210 0.145154
v -0.068306 5.345738 1.070742
v -0.000000 5.271657 0.880958
v -0.000000 5.346241 1.073078
v 0.066492 5.272691 0.877644
v 0.068306 5.345738 1.070742
v 0.092307 5.275862 0.868589
v 0.092274 5.344795 1.064275
v 0.204377 5.419516 1.182200
v 0.053274 5.478209 1.012607
v 0.063680 5.246111 1.128150
v -0.000000 5.346241 1.073078
v 0.068306 5.345738 1.070742
v -0.063680 5.381454 1.783364
v -0.134062 5.465391 1.672219
v -0.124983 5.357059 1.665989
v -0.068306 5.490739 1.798287
v -0.131021 5.371952 1.207513
v -0.122148 5.269608 1.255845
v 0.068306 5.490739 1.798287
v 0.063680 5.381454 1.783364
v 0.134062 5.465391 1.672220
v 0.063680 5.246111 1.128150
v -0.000000 5.270062 1.258025
v -0.000000 5.246827 1.130278
v -0.124983 5.357059 1.665989
v -0.122148 5.269608 1.255845
v 0.122148 5.269608 1.255845
v -0.063680 5.246111 1.128150
v 0.000000 5.357512 1.668170
v -0.063680 5.381454 1.783364
v -0.000000 5.381907 1.785544
v 0.124983 5.357059 1.665990
v 0.063680 5.381454 1.783364
v -0.063680 5.246111 1.128150
v -0.000000 5.246827 1.130278
v -0.068306 5.345738 1.070742
v -0.063680 5.246111 1.128150
v -0.068306 5.345738 1.070742
v 0.063680 5.246111 1.128150
v 0.131021 5.371952 1.207513
v 0.122148 5.269608 1.255845
v 0.063680 5.381454 1.783364
v -0.000000 5.491210 1.800629
v -0.000000 5.381907 1.785544
v 0.068306 5.490739 1.798287
v -0.063680 5.381454 1.783364
v -0.068306 5.490739 1.798287
v 0.124983 5.357059 1.665990
v 0.068306 5.345738 1.070742
vn 0.4714 0.7537 -0.4578
vn 0.8564 0.4792 -0.1923
vn 0.8438 0.4584 -0.2791
vn -0.0000 0.9262 -0.3771
vn 0.4859 0.8100 -0.3283
vn 1.0000 0.0013 -0.0017
vn 0.9997 0.0197 -0.0130
vn 0.4743 0.6143 -0.6306
vn 0.9612 -0.2569 0.1007
vn 0.9606 -0.2368 0.1455
vn 0.8464 0.3715 -0.3815
vn 0.9998 0.0158 -0.0127
vn 0.3279 -0.7961 0.5086
vn 0.4564 -0.5956 0.6611
vn 0.5332 -0.7117 0.4573
vn -0.0000 -0.6603 0.7510
vn -0.0000 -0.8286 0.5599
vn -0.1498 -0.9140 0.3770
vn -0.3280 -0.7960 0.5087
vn -0.2924 -0.8860 0.3599
vn -0.5332 -0.7117 0.4573
vn -0.4564 -0.5956 0.6611
vn -0.0000 0.8547 -0.5192
vn -0.4743 0.6143 -0.6306
vn -0.4714 0.7537 -0.4578
vn -0.8563 0.4792 -0.1924
vn -0.4859 0.8100 -0.3283
vn -0.8437 0.4585 -0.2791
vn -1.0000 0.0013 -0.0017
vn -0.8465 0.3714 -0.3815
vn -0.9997 0.0196 -0.0130
vn -0.9611 -0.2571 0.1005
vn -0.9998 0.0158 -0.0127
vn -0.9606 -0.2368 0.1455
vn -0.8550 -0.3534 0.3797
vn 0.2968 0.7840 0.5452
vn -0.0000 0.7808 0.6248
vn 0.3023 0.7840 0.5422
vn 0.5225 0.7905 0.3196
vn 0.5258 0.7904 0.3143
vn 0.6086 0.7934 -0.0006
vn 0.6088 0.7933 0.0001
vn 0.5268 0.7895 -0.3150
vn 0.5233 0.7892 -0.3214
vn 0.3036 0.7818 -0.5446
vn 0.2975 0.7818 -0.5479
vn -0.0000 0.7782 -0.6280
vn -0.0000 0.7783 -0.6278
vn -0.2975 0.7818 -0.5479
vn -0.3036 0.7818 -0.5446
vn -0.5258 0.7904 0.3143
vn -0.6086 0.7934 -0.0006
vn -0.6084 0.7937 0.0001
vn -0.5225 0.7905 0.3196
vn -0.3023 0.7840 0.5422
vn -0.2968 0.7840 0.5452
vn -0.0000 0.7809 0.6247
vn -0.5233 0.7892 -0.3214
vn -0.5271 0.7892 -0.3150
vn 0.4522 0.0182 0.8917
vn -0.0000 -0.0521 0.9986
vn -0.0000 0.0200 0.9998
vn 0.8356 0.0137 0.5491
vn 0.4564 -0.0484 0.8885
vn 0.9547 0.0106 0.2975
vn 0.8415 -0.0342 0.5392
vn 0.8388 0.0081 -0.5444
vn 0.9561 0.0215 -0.2922
vn 0.9560 0.0076 -0.2932
vn 0.4553 0.0089 -0.8903
vn 0.8323 0.0483 -0.5522
vn -0.0000 0.0097 -1.0000
vn 0.4499 0.0858 -0.8890
vn -0.0000 0.3584 0.9336
vn -0.0000 0.3540 0.9353
vn -0.0000 0.3539 0.9353
vn -0.0000 0.3495 0.9369
vn -0.0000 -0.9804 0.1971
vn -0.0000 0.9845 0.1756
vn -0.0000 1.0000 -0.0031
vn -0.2410 0.9705 0.0004
vn 0.2410 0.9705 0.0004
vn -0.9539 -0.0248 0.2992
vn -0.9547 0.0109 0.2975
vn -0.8415 -0.0342 0.5392
vn -0.8356 0.0137 0.5491
vn -0.4563 -0.0484 0.8885
vn -0.8516 -0.1312 0.5075
vn -0.4676 -0.2134 0.8578
vn -0.8646 -0.2392 0.4419
vn -0.9998 0.0032 -0.0205
vn -0.4896 -0.4097 0.7697
vn -0.9998 0.0102 -0.0192
vn -0.4522 0.0182 0.8917
vn -0.0000 -0.2395 0.9709
vn -0.0000 -0.4678 0.8838
vn 0.4676 -0.2134 0.8578
vn 0.4897 -0.4097 0.7696
vn 0.8516 -0.1311 0.5075
vn 0.8646 -0.2393 0.4418
vn 0.8550 -0.3534 0.3797
vn 0.9539 -0.0248 0.2992
vn 0.9998 0.0033 -0.0205
vn 0.9998 0.0102 -0.0192
vn 0.8373 0.1480 -0.5263
vn 0.8471 0.2628 -0.4620
vn 0.4615 0.2504 -0.8511
vn 0.4761 0.4409 -0.7609
vn -0.0000 0.0987 -0.9951
vn -0.0000 0.2858 -0.9583
vn -0.0000 0.5036 -0.8639
vn -0.0000 0.6978 -0.7163
vn -0.4499 0.0858 -0.8890
vn -0.4614 0.2505 -0.8511
vn -0.4759 0.4406 -0.7612
vn -0.4553 0.0089 -0.8903
vn -0.8323 0.0483 -0.5522
vn -0.8374 0.1478 -0.5262
vn -0.8471 0.2629 -0.4619
vn -0.9561 0.0215 -0.2922
vn -0.8388 0.0081 -0.5444
vn -0.9560 0.0076 -0.2932
vn -0.9623 -0.2562 0.0912
vn 0.8851 0.4546 -0.0998
vn 0.8806 0.4668 0.0815
vn 0.8794 0.4671 0.0923
vn -0.8851 0.4546 -0.0998
vn -0.8806 0.4668 0.0815
vn -0.8522 -0.4958 -0.1673
vn -0.9011 -0.3636 0.2361
vn -0.8513 -0.4960 -0.1712
vn -0.7650 -0.4923 -0.4153
vn -0.4994 0.8223 -0.2727
vn -0.3145 0.9396 -0.1351
vn -0.3621 0.8908 -0.2743
vn 0.8135 0.1232 -0.5684
vn 0.9734 0.0436 -0.2249
vn 0.7912 0.5027 -0.3482
vn -0.7912 0.5027 -0.3482
vn -0.0000 0.9836 -0.1802
vn -0.0000 0.9770 -0.2131
vn 0.8522 -0.4958 -0.1673
vn 0.9011 -0.3636 0.2361
vn 0.9011 -0.3231 0.2892
vn 0.7650 -0.4923 -0.4153
vn 0.8513 -0.4960 -0.1712
vn 0.3621 0.8908 -0.2743
vn -0.4168 0.8554 -0.3074
vn -0.0012 -0.9814 0.1920
vn -0.0751 -0.9618 0.2633
vn -0.0015 -0.9816 0.1911
vn -0.8135 0.1232 -0.5684
vn -0.9734 0.0436 -0.2249
vn 0.0015 -0.9816 0.1911
vn 0.0751 -0.9618 0.2633
vn 0.0013 -0.9814 0.1919
vn 0.4994 0.8223 -0.2727
vn 0.3145 0.9396 -0.1351
vn 0.4388 0.8923 -0.1061
vn 0.2222 0.9701 0.0979
vn -0.8794 0.4671 0.0922
vn -0.8439 0.4629 0.2712
vn 0.8798 -0.2023 0.4301
vn 0.8795 -0.2020 0.4309
vn 0.8439 0.4629 0.2712
vn -0.4388 0.8923 -0.1061
vn -0.2222 0.9701 0.0979
vn -0.4929 0.0284 0.8696
vn -0.0000 0.0307 0.9995
vn -0.4913 0.0285 0.8705
vn -0.8620 0.0231 0.5064
vn -0.8607 0.0232 0.5087
vn -0.0000 0.0212 -0.9998
vn -0.0000 0.0211 -0.9998
vn -0.4922 0.0200 -0.8703
vn 0.4922 0.0200 -0.8703
vn 0.4919 0.0200 -0.8704
vn -0.9998 0.0187 0.0006
vn -0.8612 0.0182 -0.5080
vn -0.8613 0.0182 -0.5077
vn -0.9998 0.0187 -0.0010
vn -0.0000 0.9567 -0.2912
vn 0.8612 0.0182 -0.5080
vn 0.8613 0.0182 -0.5077
vn 0.9998 0.0190 0.0007
vn 0.9998 0.0189 -0.0010
vn 0.8620 0.0231 0.5064
vn 0.8607 0.0232 0.5087
vn 0.4913 0.0285 0.8705
vn -0.9011 -0.3231 0.2892
vn -0.8795 -0.2020 0.4309
vn -0.4919 0.0200 -0.8704
vn 0.4929 0.0284 0.8696
vn -0.0529 -0.9533 0.2973
vn -0.0000 -0.9191 0.3940
vn -0.0000 -0.9338 0.3578
vn 0.1497 -0.9140 0.3770
vn 0.0529 -0.9533 0.2973
vn 0.2924 -0.8860 0.3599
vn 0.9623 -0.2562 0.0912
vn 0.4168 0.8554 -0.3074
vn -0.0338 -0.4981 -0.8665
vn -0.0000 -0.4983 -0.8670
vn -0.0339 -0.4981 -0.8665
vn -0.8733 -0.1014 0.4764
vn -0.9536 -0.0963 0.2853
vn -0.9718 -0.0937 0.2165
vn -0.8733 -0.1013 0.4765
vn -0.9610 -0.1827 -0.2078
vn -0.9751 -0.1588 -0.1547
vn 0.8733 -0.1013 0.4765
vn 0.8733 -0.1014 0.4764
vn 0.9535 -0.0967 0.2853
vn -0.0020 -0.9836 0.1804
vn -0.0000 -0.9809 0.1947
vn -0.0000 -0.9836 0.1804
vn -0.0001 -0.9784 0.2065
vn 0.0009 -0.9805 0.1965
vn -0.0007 -0.9805 0.1965
vn 0.0020 -0.9836 0.1804
vn -0.0000 -0.9786 0.2060
vn -0.0000 -0.9791 0.2035
vn 0.0001 -0.9784 0.2065
vn 0.0341 -0.4982 -0.8664
vn -0.0000 -0.4984 -0.8669
vn 0.0339 -0.4981 -0.8665
vn -0.8971 -0.2506 -0.3639
vn -0.8971 -0.2505 -0.3640
vn 0.8971 -0.2506 -0.3639
vn 0.9610 -0.1825 -0.2078
vn 0.9751 -0.1587 -0.1547
vn 0.0330 -0.1366 0.9901
vn -0.0000 -0.1367 0.9906
vn -0.0330 -0.1366 0.9901
vn 0.9718 -0.0937 0.2165
vn 0.8971 -0.2505 -0.3640
s 1
usemtl Grey
f 1//1 2//2 3//3
f 1//1 4//4 5//5
f 3//3 6//6 7//7
f 3//3 8//8 1//1
f 7//7 9//9 10//10
f 7//7 11//11 3//3
f 10//10 12//12 7//7
f 13//13 14//14 15//15
f 13//13 16//16 14//14
f 17//17 16//16 13//13
f 17//17 18//18 19//19
f 19//19 20//20 21//21
f 19//19 16//16 17//17
f 21//21 22//22 19//19
f 23//23 24//24 25//25
f 23//23 4//4 1//1
f 25//25 4//4 23//23
f 25//25 26//26 27//27
f 28//28 29//29 26//26
f 28//28 26//26 25//25
f 28//28 24//24 30//30
f 31//31 32//32 29//29
f 31//31 30//30 33//33
f 34//34 33//33 35//35
f 36//36 37//37 38//38
f 38//38 39//39 36//36
f 38//38 40//40 39//39
f 40//40 41//41 39//39
f 40//40 42//42 41//41
f 41//41 43//43 44//44
f 43//43 41//41 42//42
f 44//44 45//45 46//46
f 45//45 44//44 43//43
f 46//46 47//47 48//48
f 47//47 46//46 45//45
f 47//47 49//49 48//48
f 47//47 50//50 49//49
f 51//51 52//52 53//53
f 54//54 55//55 56//56
f 55//55 54//54 51//51
f 37//37 56//56 55//55
f 37//37 36//36 57//57
f 56//56 37//37 57//57
f 58//58 49//49 50//50
f 58//58 50//50 59//59
f 52//52 59//59 53//53
f 52//52 51//51 54//54
f 59//59 52//52 58//58
f 60//60 61//61 62//62
f 63//63 64//64 60//60
f 65//65 66//66 63//63
f 67//67 68//68 69//69
f 70//70 71//71 67//67
f 72//72 73//73 70//70
f 74//74 75//75 76//76
f 77//77 75//75 78//76
f 79//78 80//78 81//78
f 79//78 82//78 83//78
f 84//77 75//75 85//77
f 86//74 87//74 75//75
f 75//75 84//77 76//76
f 75//75 74//74 86//74
f 75//75 77//77 85//77
f 78//76 75//75 87//74
f 88//79 89//80 90//81
f 88//79 91//82 89//80
f 92//83 93//84 94//85
f 94//85 95//86 96//87
f 94//85 93//84 95//86
f 94//85 97//88 92//83
f 97//88 94//85 98//89
f 97//88 99//90 100//91
f 99//90 97//88 101//92
f 99//90 35//35 102//93
f 35//35 99//90 22//22
f 96//87 95//86 103//94
f 96//87 98//89 94//85
f 96//87 103//94 61//61
f 98//89 101//92 97//88
f 98//89 96//87 104//95
f 101//92 22//22 99//90
f 101//92 98//89 105//96
f 22//22 21//21 35//35
f 22//22 101//92 16//16
f 61//61 60//60 64//64
f 61//61 103//94 62//62
f 104//95 96//87 61//61
f 104//95 64//64 106//97
f 105//96 98//89 104//95
f 105//96 106//97 107//98
f 16//16 107//98 14//14
f 16//16 101//92 105//96
f 16//16 19//19 22//22
f 64//64 104//95 61//61
f 64//64 63//63 66//66
f 106//97 66//66 108//99
f 106//97 105//96 104//95
f 107//98 108//99 109//100
f 107//98 16//16 105//96
f 14//14 109//100 110//101
f 66//66 106//97 64//64
f 66//66 65//65 111//102
f 111//102 108//99 66//66
f 108//99 111//102 112//103
f 108//99 107//98 106//97
f 109//100 14//14 107//98
f 109//100 112//103 113//104
f 110//101 15//15 14//14
f 110//101 113//104 12//12
f 68//68 67//67 71//71
f 112//103 109//100 108//99
f 112//103 71//71 114//105
f 113//104 114//105 115//106
f 113//104 110//101 109//100
f 12//12 10//10 110//101
f 12//12 115//106 11//11
f 71//71 112//103 68//68
f 71//71 70//70 73//73
f 114//105 73//73 116//107
f 114//105 113//104 112//103
f 115//106 116//107 117//108
f 115//106 12//12 113//104
f 11//11 117//108 8//8
f 11//11 7//7 12//12
f 73//73 72//72 118//109
f 73//73 114//105 71//71
f 116//107 118//109 119//110
f 116//107 115//106 114//105
f 117//108 11//11 115//106
f 117//108 119//110 120//111
f 8//8 23//23 1//1
f 8//8 120//111 121//112
f 8//8 3//3 11//11
f 118//109 72//72 122//113
f 118//109 116//107 73//73
f 119//110 118//109 123//114
f 119//110 117//108 116//107
f 120//111 119//110 124//115
f 120//111 8//8 117//108
f 121//112 23//23 8//8
f 121//112 120//111 24//24
f 122//113 72//72 125//116
f 122//113 125//116 126//117
f 123//114 118//109 122//113
f 123//114 122//113 127//118
f 124//115 119//110 123//114
f 124//115 123//114 128//119
f 24//24 120//111 124//115
f 24//24 23//23 121//112
f 24//24 124//115 30//30
f 24//24 28//28 25//25
f 129//120 130//121 131//122
f 129//120 100//91 126//117
f 126//117 130//121 129//120
f 126//117 125//116 130//121
f 126//117 127//118 122//113
f 100//91 102//93 127//118
f 100//91 92//83 97//88
f 127//118 126//117 100//91
f 127//118 128//119 123//114
f 102//93 33//33 128//119
f 102//93 100//91 99//90
f 33//33 34//34 31//31
f 33//33 102//93 35//35
f 128//119 127//118 102//93
f 128//119 30//30 124//115
f 30//30 31//31 28//28
f 30//30 128//119 33//33
f 32//32 31//31 34//34
f 32//32 132//123 29//29
f 133//124 134//125 135//126
f 136//127 137//128 138//127
f 139//129 140//130 141//131
f 141//131 142//132 139//129
f 142//132 141//131 143//132
f 144//133 145//134 146//135
f 147//136 148//137 149//138
f 146//135 150//139 144//133
f 146//135 151//140 152//141
f 153//142 154//143 155//144
f 156//145 157//146 153//142
f 157//146 156//145 158//145
f 152//141 151//140 159//147
f 152//141 160//148 146//135
f 161//149 162//150 163//151
f 163//151 164//78 161//149
f 165//152 166//153 167//152
f 168//154 169//155 170//156
f 171//157 172//158 173//159
f 159//147 151//140 172//158
f 159//147 172//158 171//157
f 174//160 173//159 91//82
f 175//78 168//154 176//78
s 0
f 82//78 176//78 83//78
f 82//78 79//78 81//78
s 1
f 176//78 168//154 170//156
s 0
f 176//78 82//78 175//78
s 1
f 137//128 136//127 177//161
f 178//162 177//161 179//162
f 177//161 178//162 137//128
s 0
f 80//78 164//78 180//78
s 1
f 80//78 79//78 181//78
s 0
f 164//78 80//78 181//78
s 1
f 164//78 163//151 180//78
f 172//158 91//82 173//159
f 91//82 88//79 174//160
f 91//82 151//140 89//80
f 154//143 153//142 157//146
f 155//144 182//163 183//164
f 182//163 155//144 154//143
f 151//140 146//135 145//134
f 151//140 91//82 172//158
f 151//140 90//81 89//80
f 134//125 133//124 184//124
f 135//126 185//165 186//165
f 185//165 135//126 134//125
f 145//134 144//133 187//166
f 90//81 187//166 188//167
f 90//81 151//140 145//134
f 90//81 188//167 88//79
f 187//166 90//81 145//134
f 189//168 190//169 191//169
f 192//170 193//171 194//172
f 195//173 196//174 197//175
f 196//174 198//176 199//177
f 193//171 192//170 189//168
f 193//171 200//178 194//172
f 200//178 201//179 202//180
f 203//181 200//178 193//171
f 160//148 152//141 204//182
f 27//27 204//182 4//4
f 27//27 150//139 160//148
f 198//176 196//174 195//173
f 199//177 205//183 206//184
f 205//183 207//185 206//184
f 205//183 199//177 198//176
f 208//186 207//185 205//183
f 207//185 209//187 210//188
f 209//187 207//185 208//186
f 209//187 211//189 210//188
f 140//130 139//129 212//190
f 213//191 212//190 214//191
f 212//190 213//191 140//130
f 201//179 215//192 202//180
f 201//179 200//178 203//181
f 197//175 215//192 201//179
f 197//175 196//174 215//192
f 216//193 190//169 211//189
f 216//193 211//189 209//187
f 190//169 189//168 192//170
f 191//169 190//169 216//193
f 20//20 19//19 18//18
f 162//150 18//18 217//194
f 18//18 162//150 20//20
f 18//18 17//17 218//195
f 217//194 163//151 162//150
f 217//194 218//195 219//196
f 218//195 217//194 18//18
f 218//195 17//17 220//197
f 219//196 218//195 221//198
f 222//199 13//13 15//15
f 169//155 220//197 222//199
f 169//155 168//154 221//198
f 220//197 17//17 13//13
f 220//197 13//13 222//199
f 221//198 218//195 220//197
f 221//198 220//197 169//155
f 9//9 7//7 6//6
f 223//200 6//6 148//137
f 6//6 3//3 2//2
f 6//6 223//200 9//9
f 148//137 147//136 224//136
f 148//137 2//2 149//138
f 2//2 1//1 5//5
f 2//2 148//137 6//6
f 149//138 159//147 171//157
f 149//138 5//5 225//201
f 225//201 152//141 159//147
f 225//201 159//147 149//138
f 5//5 149//138 2//2
f 5//5 204//182 225//201
f 204//182 152//141 225//201
f 204//182 27//27 160//148
f 4//4 25//25 27//27
f 4//4 204//182 5//5
f 29//29 28//28 31//31
f 29//29 132//123 166//153
f 150//139 146//135 160//148
f 166//153 26//26 29//29
f 166//153 165//152 150//139
f 26//26 166//153 150//139
f 26//26 150//139 27//27
usemtl Light
f 226//202 227//203 228//204
f 229//205 230//206 231//207
f 230//206 229//205 232//208
f 231//207 233//209 234//210
f 235//211 236//212 237//213
f 238//214 239//215 240//216
f 239//215 241//217 242//218
f 239//215 238//214 243//219
f 239//215 244//220 240//216
f 242//218 244//220 239//215
f 241//217 239//215 245//221
f 246//222 245//221 247//222
f 248//223 239//215 243//219
f 245//221 248//223 249//222
f 245//221 246//222 241//217
f 245//221 239//215 248//223
f 247//222 245//221 249//222
f 250//224 227//203 251//225
f 227//203 226//202 251//225
f 227//203 250//224 252//226
f 233//209 231//207 230//206
f 233//209 253//227 234//210
f 253//227 233//209 254//228
f 255//229 256//230 257//231
f 258//232 259//233 260//233
f 259//233 258//232 261//232
f 259//233 262//234 260//233
f 262//234 259//233 263//234
f 237//213 236//212 264//235
f 256//230 255//229 265//236
f 256//230 264//235 257//231
f 256//230 237//213 264//235
