# Blender 4.0.0
# www.blender.org
mtllib espejo2.mtl
o cristal
v -0.085699 2.459442 -1.548283
v -0.085699 2.459442 1.548283
v -0.085699 -2.459442 -1.548283
v -0.085699 -2.459442 1.548283
vn -1.0000 -0.0000 -0.0000
vn 1.0000 -0.0000 -0.0000
vt 0.000000 0.000000
vt 1.000000 1.000000
vt 1.000000 0.000000
vt 0.000000 1.000000
s 0
usemtl Material.001
f 1/1/1 4/2/1 2/3/1
f 1/1/1 3/4/1 4/2/1
f 2/1/2 3/2/2 1/3/2
f 2/1/2 4/4/2 3/2/2
o marco
v -0.142447 2.741731 -1.725991
v -0.142447 2.741732 1.725991
v -0.142447 -2.741732 -1.725991
v -0.142447 -2.741731 1.725991
v 0.142447 2.459442 -1.548283
v 0.142447 2.459442 -0.380212
v 0.142447 0.603966 -1.548283
v 0.142447 2.459442 1.548283
v 0.142447 -0.603966 1.548283
v 0.142447 -2.459442 0.380212
v 0.142447 -2.459442 -1.548283
v 0.142447 -2.459442 1.548283
vn -1.0000 -0.0000 -0.0000
vn -0.0000 -0.0000 1.0000
vn 1.0000 -0.0000 -0.0000
vn -0.0000 1.0000 -0.0000
vn -0.0000 -0.0000 -1.0000
vn -0.0000 -1.0000 -0.0000
vn -0.0000 -1.0000 -0.0001
vt 0.000000 0.000000
vt 1.000000 1.000000
vt 1.000000 0.000000
vt 0.000000 1.000000
vt 0.051480 0.051480
vt 0.610143 0.051480
vt 0.948520 0.051480
vt 0.948520 0.389857
vt 0.948520 0.948520
vt 0.389857 0.948520
vt 0.051480 0.948520
vt 0.051480 0.610143
vt 0.622785 0.622785
vt 0.622785 1.000000
vt 0.377215 0.377215
vt 0.377215 0.000000
vt 0.377215 1.000000
vt 0.000000 0.377215
vt 1.000000 0.622785
vt 0.000000 0.622785
s 0
usemtl Material.005
f 5/5/3 8/6/3 6/7/3
f 5/5/3 7/8/3 8/6/3
f 6/5/4 8/6/4 12/7/4
f 12/9/5 10/10/5 9/11/5 11/12/5 15/13/5 7/6/5 5/7/5
f 7/6/5 15/13/5 14/14/5 16/15/5 13/16/5 12/5/5 8/8/5
f 5/5/6 6/6/6 12/7/6
f 8/8/7 12/5/7 13/17/7 16/18/7
f 7/6/4 11/19/4 9/20/4 5/7/4
f 7/6/4 15/21/4 11/19/4
f 9/22/8 10/19/8 12/6/8 5/8/9
f 14/17/6 7/5/6 8/7/6 16/23/6
f 7/5/6 14/17/6 15/24/6
